<?xml version="1.0" encoding="UTF-8" standalone="no"?>
<!DOCTYPE svg PUBLIC "-//W3C//DTD SVG 1.1//EN" "http://www.w3.org/Graphics/SVG/1.1/DTD/svg11.dtd">
<svg width="100%" height="100%" viewBox="0 0 1080 514" version="1.1" xmlns="http://www.w3.org/2000/svg" xmlns:xlink="http://www.w3.org/1999/xlink" xml:space="preserve" xmlns:serif="http://www.serif.com/" style="fill-rule:evenodd;clip-rule:evenodd;stroke-linejoin:round;stroke-miterlimit:1.5;">
    <rect id="Artboard1" x="0" y="0" width="1080" height="513.2" style="fill:none;"/>
    <g id="Artboard11" serif:id="Artboard1">
        <g transform="matrix(5.25238,0,0,5.25238,63.5856,46.5054)">
            <path d="M61.796,16.494C57.074,14.285 52.024,12.679 46.746,11.765C46.097,12.937 45.34,14.513 44.818,15.767C39.206,14.923 33.646,14.923 28.138,15.767C27.616,14.513 26.841,12.937 26.187,11.765C20.903,12.679 15.848,14.291 11.126,16.506C1.601,30.899 -0.981,44.934 0.31,58.771C6.627,63.488 12.749,66.354 18.768,68.229C20.254,66.184 21.58,64.01 22.722,61.719C20.547,60.892 18.464,59.873 16.496,58.689C17.018,58.302 17.529,57.898 18.022,57.481C30.026,63.096 43.068,63.096 54.928,57.481C55.427,57.898 55.938,58.302 56.454,58.689C54.48,59.878 52.392,60.898 50.217,61.724C51.359,64.01 52.679,66.19 54.17,68.235C60.195,66.36 66.323,63.494 72.64,58.771C74.155,42.731 70.053,28.824 61.796,16.494ZM24.357,50.262C20.754,50.262 17.799,46.898 17.799,42.801C17.799,38.705 20.69,35.335 24.357,35.335C28.023,35.335 30.978,38.699 30.915,42.801C30.921,46.898 28.023,50.262 24.357,50.262ZM48.593,50.262C44.99,50.262 42.035,46.898 42.035,42.801C42.035,38.705 44.927,35.335 48.593,35.335C52.26,35.335 55.215,38.699 55.152,42.801C55.152,46.898 52.26,50.262 48.593,50.262Z" style="fill:rgb(30,30,30);fill-rule:nonzero;"/>
        </g>
        <g id="je.-logo" serif:id="je. logo" transform="matrix(0.811667,0,0,0.811667,46.2055,-181.421)">
            <g transform="matrix(1,0,0,1,724.969,460.031)">
                <path d="M0,251.255L15.519,209.502C22.17,214.178 30.298,216.523 39.905,216.523C47.295,216.523 53.08,214.12 57.271,209.317C61.457,204.514 63.553,197.309 63.553,187.701L63.553,-11.084L121.193,-11.084L121.193,187.332C121.193,210.484 114.6,228.774 101.425,242.202C88.245,255.625 69.834,262.339 46.187,262.339C25.992,262.339 10.594,258.645 0,251.255" style="fill:rgb(20,20,35);fill-rule:nonzero;"/>
            </g>
            <g transform="matrix(1,0,0,1,791.478,366.18)">
                <path d="M0,45.817C-6.651,39.663 -9.977,32.025 -9.977,22.91C-9.977,13.798 -6.651,6.16 0,0C6.65,-6.153 15.271,-9.237 25.864,-9.237C36.452,-9.237 45.078,-6.281 51.728,-0.369C58.379,5.543 61.705,12.933 61.705,21.8C61.705,31.408 58.379,39.351 51.728,45.633C45.078,51.914 36.452,55.054 25.864,55.054C15.271,55.054 6.65,51.977 0,45.817" style="fill:rgb(0,70,255);fill-rule:nonzero;"/>
            </g>
            <g transform="matrix(1,0,0,1,963.29,587.379)">
                <path d="M0,-95.329C-8.869,-87.939 -14.289,-77.835 -16.258,-65.031L81.657,-65.031C79.684,-77.593 74.268,-87.627 65.4,-95.144C56.531,-102.655 45.689,-106.413 32.885,-106.413C19.825,-106.413 8.867,-102.719 0,-95.329M134.864,-31.407L-15.519,-31.407C-12.812,-19.086 -6.409,-9.358 3.694,-2.217C13.792,4.931 26.354,8.498 41.383,8.498C51.729,8.498 60.901,6.963 68.91,3.879C76.912,0.803 84.364,-4.064 91.264,-10.715L121.932,22.539C103.208,43.97 75.866,54.685 39.905,54.685C17.486,54.685 -2.344,50.314 -19.583,41.567C-36.828,32.827 -50.13,20.692 -59.488,5.173C-68.853,-10.346 -73.529,-27.955 -73.529,-47.664C-73.529,-67.121 -68.911,-84.672 -59.673,-100.317C-50.436,-115.957 -37.752,-128.149 -21.616,-136.897C-5.485,-145.638 12.563,-150.014 32.515,-150.014C51.971,-150.014 69.585,-145.822 85.352,-137.452C101.112,-129.074 113.491,-117.065 122.486,-101.425C131.475,-85.78 135.973,-67.617 135.973,-46.925C135.973,-46.186 135.603,-41.014 134.864,-31.407" style="fill:rgb(20,20,35);fill-rule:nonzero;"/>
            </g>
            <g transform="matrix(1,0,0,1,1133.99,580.729)">
                <path d="M0,50.989C-6.899,44.095 -10.347,35.47 -10.347,25.125C-10.347,14.536 -6.899,5.975 0,-0.555C6.892,-7.078 15.391,-10.346 25.494,-10.346C35.591,-10.346 44.09,-7.078 50.988,-0.555C57.882,5.975 61.335,14.536 61.335,25.125C61.335,35.47 57.882,44.095 50.988,50.989C44.09,57.888 35.591,61.335 25.494,61.335C15.391,61.335 6.892,57.888 0,50.989" style="fill:rgb(0,70,255);fill-rule:nonzero;"/>
            </g>
        </g>
        <g transform="matrix(0.706543,-0.70767,0.70767,0.706543,-49.5172,465.599)">
            <path d="M540,245.095L588.843,293.938" style="fill:none;stroke:rgb(20,20,35);stroke-width:8.33px;"/>
            <g transform="matrix(-1,0,0,1,1128.84,0)">
                <path d="M540,245.095L588.843,293.938" style="fill:none;stroke:rgb(20,20,35);stroke-width:8.33px;"/>
            </g>
        </g>
    </g>
</svg>
