<?xml version="1.0" encoding="UTF-8" standalone="no"?>
<!DOCTYPE svg PUBLIC "-//W3C//DTD SVG 1.1//EN" "http://www.w3.org/Graphics/SVG/1.1/DTD/svg11.dtd">
<svg width="100%" height="100%" viewBox="0 0 751 270" version="1.1" xmlns="http://www.w3.org/2000/svg" xmlns:xlink="http://www.w3.org/1999/xlink" xml:space="preserve" xmlns:serif="http://www.serif.com/" style="fill-rule:evenodd;clip-rule:evenodd;stroke-linejoin:round;stroke-miterlimit:2;">
    <g transform="matrix(0.596815,0,0,0.596777,-210.597,-159.889)">
        <path d="M558.467,616.992L352.868,524.026L352.868,460.111L558.467,366.697L558.467,427.483L435.108,481.565C429.148,484.247 422.891,486.481 416.336,488.269C409.78,490.057 404.566,491.249 400.692,491.845C404.566,492.441 409.78,493.558 416.336,495.197C422.891,496.836 429.148,498.996 435.108,501.678L558.467,555.76L558.467,616.992Z" style="fill:rgb(0,70,255);fill-rule:nonzero;"/>
    </g>
    <g transform="matrix(0.596815,0,0,0.596777,-210.597,-159.889)">
        <path d="M616.572,719.345L616.572,659.006L694.789,659.006C706.112,659.006 715.274,655.282 722.277,647.832C729.279,640.383 732.78,630.699 732.78,618.78L732.78,453.407L625.511,453.407L625.511,393.068L799.823,393.068L799.823,621.015C799.823,651.408 790.884,675.395 773.006,692.975C755.128,710.555 730.694,719.345 699.705,719.345L616.572,719.345ZM766.302,354.183C754.085,354.183 744.326,351.054 737.026,344.797C729.726,338.539 726.076,330.047 726.076,319.32C726.076,308.593 729.726,300.101 737.026,293.844C744.326,287.586 754.085,284.458 766.302,284.458C778.519,284.458 788.277,287.586 795.577,293.844C802.878,300.101 806.528,308.593 806.528,319.32C806.528,330.047 802.878,338.539 795.577,344.797C788.277,351.054 778.519,354.183 766.302,354.183Z" style="fill:white;fill-rule:nonzero;"/>
    </g>
    <g transform="matrix(0.596815,0,0,0.596777,-210.597,-159.889)">
        <path d="M992.461,643.363C970.709,643.363 951.714,639.266 935.474,631.072C919.235,622.877 906.72,611.406 897.93,596.656C889.14,581.906 884.745,564.699 884.745,545.033L884.745,486.928C884.745,467.262 889.14,450.055 897.93,435.305C906.72,420.555 919.235,409.084 935.474,400.889C951.714,392.695 970.709,388.598 992.461,388.598C1014.21,388.598 1033.06,392.695 1049,400.889C1064.94,409.084 1077.31,420.555 1086.1,435.305C1094.89,450.055 1099.28,467.262 1099.28,486.928L1099.28,531.624L948.66,531.624L948.66,545.033C948.66,576.32 963.558,591.963 993.355,591.963C1014.51,591.963 1027.17,585.259 1031.35,571.85L1097.05,571.85C1091.68,593.304 1079.54,610.586 1060.62,623.697C1041.7,636.807 1018.98,643.363 992.461,643.363ZM948.66,486.928L948.66,493.633L1035.37,492.739L1035.37,486.034C1035.37,454.748 1021.07,439.104 992.461,439.104C977.861,439.104 966.91,443.276 959.61,451.619C952.31,459.962 948.66,471.732 948.66,486.928Z" style="fill:white;fill-rule:nonzero;"/>
    </g>
    <g transform="matrix(0.596815,0,0,0.596777,-210.597,-159.889)">
        <path d="M1166.33,688.058L1320.53,267.92L1389.81,267.92L1360.75,346.584L1611.05,459.664L1611.05,523.579L1405.45,616.992L1405.45,556.207L1528.81,501.678C1535.07,498.996 1542.14,496.836 1550.04,495.197C1557.93,493.558 1564.27,492.59 1569.03,492.292C1564.27,491.696 1557.93,490.579 1550.04,488.94C1542.14,487.301 1535.07,485.141 1528.81,482.459L1341.53,398.431L1235.61,688.058L1166.33,688.058Z" style="fill:rgb(0,70,255);fill-rule:nonzero;"/>
    </g>
</svg>
