<?xml version="1.0" encoding="UTF-8" standalone="no"?>
<!DOCTYPE svg PUBLIC "-//W3C//DTD SVG 1.1//EN" "http://www.w3.org/Graphics/SVG/1.1/DTD/svg11.dtd">
<svg width="100%" height="100%" viewBox="0 0 1080 514" version="1.1" xmlns="http://www.w3.org/2000/svg" xmlns:xlink="http://www.w3.org/1999/xlink" xml:space="preserve" xmlns:serif="http://www.serif.com/" style="fill-rule:evenodd;clip-rule:evenodd;stroke-linejoin:round;stroke-miterlimit:2;">
    <g transform="matrix(1,0,0,1,-5.49327,-1482.56)">
        <g id="Symbol" transform="matrix(1,0,0,0.47519,5.49327,1482.56)">
            <rect x="0" y="0" width="1080" height="1080" style="fill:none;"/>
            <g transform="matrix(1,0,0,2.10442,0,-596.388)">
                <g>
                    <g transform="matrix(11.2137,0,0,11.2137,-5663.74,-4055.22)">
                        <path d="M536.949,431.436C546.373,431.436 552.501,426.235 552.501,418.276L552.501,395.23L542.149,395.23L542.149,417.251C542.149,420.938 540.343,422.988 536.974,422.988C533.605,422.988 531.798,420.938 531.798,417.251L531.798,395.23L521.446,395.23L521.446,418.276C521.446,426.284 527.647,431.436 536.949,431.436Z" style="fill:rgb(20,20,35);fill-rule:nonzero;"/>
                    </g>
                    <g transform="matrix(11.2137,0,0,11.2137,-5299.13,-4134.71)">
                        <path d="M536.949,431.436C546.373,431.436 552.501,426.235 552.501,418.276L552.501,395.23L542.149,395.23L542.149,417.251C542.149,420.938 540.343,422.988 536.974,422.988C533.605,422.988 531.798,420.938 531.798,417.251L531.798,395.23L521.446,395.23L521.446,418.276C521.446,426.284 527.647,431.436 536.949,431.436Z" style="fill:rgb(20,20,35);fill-rule:nonzero;"/>
                    </g>
                </g>
                <g>
                    <path d="M18.781,730.057C18.781,730.057 68.15,720.561 138.922,689.067C172.87,673.959 211.105,653.704 251.497,627.388C307.131,589.284 374.615,565.808 446.762,552.376C487.515,544.789 529.745,541.539 572.489,539.991C635.786,537.698 700.266,539.804 762.424,552.342C853.624,568.068 916.951,558.421 960.694,535.462C1059.26,483.727 1056.58,372.832 1056.58,372.832C1056.58,372.832 1043.12,472.022 947.612,505.311C907.171,519.407 852.08,521.093 775.264,497.938C719.947,482.702 662.435,472.56 604.911,471.106C566.045,470.123 527.242,473.018 489.656,479.435C389.568,496.525 297.88,536.992 227.682,596.186C192.942,627.053 159.243,651.608 129.17,671.068C65.048,712.564 18.781,730.057 18.781,730.057Z" style="fill:rgb(20,20,35);"/>
                    <path d="M18.781,730.057C18.781,730.057 67.602,718.597 136.6,684.781C169.549,668.633 206.886,647.342 245.827,619.959C274.455,599.464 306.344,582.644 340.394,568.798C388.819,549.107 441.778,536.345 496.7,529.343C531.987,524.845 568.052,522.9 604.321,523.048C658.344,523.267 712.824,528.035 765.481,539.389C853.074,557.125 914.584,548.955 957.579,528.283C1055.25,481.324 1056.58,372.832 1056.58,372.832C1056.58,372.832 1046.78,475.174 950.727,512.49C909.469,528.519 852.258,532.509 772.206,510.891C717.729,496.914 661.122,488.39 604.727,487.338C566.672,486.628 528.737,489.255 491.857,495.032C393.876,510.378 303.237,547.399 233.352,603.615C197.368,633.375 162.412,656.931 131.492,675.354C65.971,714.393 18.781,730.057 18.781,730.057Z" style="fill:rgb(5,41,158);"/>
                    <path d="M18.781,730.057C18.781,730.057 67.214,717.432 135.207,682.21C167.579,665.441 204.321,643.527 242.425,615.501C271.092,594.245 303.095,576.498 337.405,561.968C386.204,541.303 439.755,527.491 495.379,519.985C531.106,515.165 567.676,513.013 604.432,513.309C659.087,513.748 714.166,519.567 767.315,531.617C852.796,550.483 913.178,543.329 955.71,523.976C1052.89,479.76 1056.58,372.832 1056.58,372.832C1056.58,372.832 1049.04,476.962 952.596,516.797C910.854,534.039 852.424,539.292 770.372,518.663C716.395,505.421 660.349,497.895 604.616,497.077C567.048,496.526 529.63,498.988 493.178,504.389C396.425,518.726 306.44,553.594 236.754,608.072C199.995,637.177 164.335,660.122 132.885,677.925C66.472,715.519 18.781,730.057 18.781,730.057Z" style="fill:rgb(0,70,255);"/>
                </g>
                <g>
                    <g transform="matrix(11.2137,0,0,11.2137,-5663.74,-4055.22)">
                        <path d="M536.949,431.436C546.373,431.436 540.343,422.988 536.974,422.988C533.605,422.988 531.798,420.938 531.798,417.251L531.798,395.23L521.446,395.23L521.446,418.276C521.446,426.284 527.647,431.436 536.949,431.436Z" style="fill:rgb(20,20,35);fill-rule:nonzero;"/>
                    </g>
                    <g transform="matrix(11.2137,0,0,11.2137,-5299.13,-4134.71)">
                        <path d="M536.949,431.436C546.373,431.436 552.501,426.235 552.501,418.276L552.501,395.23L542.149,395.23L542.149,417.251C542.149,420.938 540.343,422.988 536.974,422.988C533.605,422.988 527.647,431.436 536.949,431.436Z" style="fill:rgb(20,20,35);fill-rule:nonzero;"/>
                    </g>
                </g>
            </g>
        </g>
    </g>
</svg>
