<?xml version="1.0" encoding="UTF-8" standalone="no"?>
<!DOCTYPE svg PUBLIC "-//W3C//DTD SVG 1.1//EN" "http://www.w3.org/Graphics/SVG/1.1/DTD/svg11.dtd">
<svg width="100%" height="100%" viewBox="0 0 1080 325" version="1.1" xmlns="http://www.w3.org/2000/svg" xmlns:xlink="http://www.w3.org/1999/xlink" xml:space="preserve" xmlns:serif="http://www.serif.com/" style="fill-rule:evenodd;clip-rule:evenodd;stroke-miterlimit:1.5;">
    <g transform="matrix(1,0,0,1,-1170.92,0)">
        <g id="Artboard1" transform="matrix(1,0,0,0.632301,1170.92,0)">
            <rect x="0" y="0" width="1080" height="513.2" style="fill:none;"/>
            <g transform="matrix(1,0,0,1.58153,0,-225.267)">
                <g>
                    <g transform="matrix(0.645487,0,0,0.645487,-762.616,104.845)">
                        <rect x="1260.76" y="141.306" width="187.59" height="187.59" style="fill:rgb(68,170,58);stroke:rgb(68,170,58);stroke-width:35.5px;"/>
                    </g>
                    <g transform="matrix(0.645487,0,0,0.645487,-591.308,104.845)">
                        <rect x="1260.76" y="141.306" width="187.59" height="187.59" style="fill:rgb(68,170,58);stroke:rgb(68,170,58);stroke-width:35.5px;"/>
                    </g>
                    <g transform="matrix(0.645487,0,0,0.645487,-420.001,104.845)">
                        <rect x="1260.76" y="141.306" width="187.59" height="187.59" style="fill:rgb(68,170,58);stroke:rgb(68,170,58);stroke-width:35.5px;"/>
                    </g>
                    <g transform="matrix(0.645487,0,0,0.645487,-248.693,104.845)">
                        <rect x="1260.76" y="141.306" width="187.59" height="187.59" style="fill:rgb(68,170,58);stroke:rgb(68,170,58);stroke-width:35.5px;"/>
                    </g>
                    <g transform="matrix(0.645487,0,0,0.645487,-77.3855,104.845)">
                        <rect x="1260.76" y="141.306" width="187.59" height="187.59" style="fill:rgb(68,170,58);stroke:rgb(68,170,58);stroke-width:35.5px;"/>
                    </g>
                    <g transform="matrix(0.645487,0,0,0.645487,93.9221,104.845)">
                        <rect x="1260.76" y="141.306" width="187.59" height="187.59" style="fill:rgb(68,170,58);stroke:rgb(68,170,58);stroke-width:35.5px;"/>
                    </g>
                    <g transform="matrix(0.760118,0,0,0.760118,-892.006,52.1455)">
                        <text x="1260.01px" y="310.311px" style="font-family:'SFProText-Heavy', 'SF Pro Text';font-weight:800;font-size:117.327px;fill:white;">W</text>
                    </g>
                    <g transform="matrix(0.760118,0,0,0.760118,-720.699,52.1455)">
                        <text x="1273.9px" y="310.311px" style="font-family:'SFProText-Heavy', 'SF Pro Text';font-weight:800;font-size:117.327px;fill:white;">O</text>
                    </g>
                    <g transform="matrix(0.760118,0,0,0.760118,-549.391,52.1455)">
                        <text x="1278.51px" y="310.311px" style="font-family:'SFProText-Heavy', 'SF Pro Text';font-weight:800;font-size:117.327px;fill:white;">R</text>
                    </g>
                    <g transform="matrix(0.760118,0,0,0.760118,-380.043,52.1455)">
                        <text x="1276.02px" y="310.311px" style="font-family:'SFProText-Heavy', 'SF Pro Text';font-weight:800;font-size:117.327px;fill:white;">D</text>
                    </g>
                    <g transform="matrix(0.760118,0,0,0.760118,-208.365,52.1455)">
                        <text x="1284.78px" y="310.311px" style="font-family:'SFProText-Heavy', 'SF Pro Text';font-weight:800;font-size:117.327px;fill:white;">L</text>
                    </g>
                    <g transform="matrix(0.760118,0,0,0.760118,-36.0561,52.1455)">
                        <text x="1283.21px" y="310.311px" style="font-family:'SFProText-Heavy', 'SF Pro Text';font-weight:800;font-size:117.327px;fill:white;">E</text>
                    </g>
                </g>
                <g transform="matrix(1,0,0,1,-876.845,-41.0841)">
                    <text x="1240.61px" y="444.165px" style="font-family:'JetBrainsMono-ExtraBold', 'JetBrains Mono', monospace;font-weight:800;font-size:56.849px;fill:rgb(68,170,58);">i<tspan x="1280.41px 1320.2px 1360px 1399.79px 1439.58px 1479.38px 1519.17px 1558.97px " y="444.165px 444.165px 444.165px 444.165px 444.165px 444.165px 444.165px 444.165px ">n python</tspan></text>
                </g>
            </g>
        </g>
    </g>
</svg>
