<?xml version="1.0" encoding="UTF-8" standalone="no"?>
<!DOCTYPE svg PUBLIC "-//W3C//DTD SVG 1.1//EN" "http://www.w3.org/Graphics/SVG/1.1/DTD/svg11.dtd">
<svg width="100%" height="100%" viewBox="0 0 42 42" version="1.1" xmlns="http://www.w3.org/2000/svg" xmlns:xlink="http://www.w3.org/1999/xlink" xml:space="preserve" xmlns:serif="http://www.serif.com/" style="fill-rule:evenodd;clip-rule:evenodd;stroke-miterlimit:2;">
    <g transform="matrix(0.725588,0,0,0.711324,-3.13426,6.10878)">
        <path d="M24.392,37.61L25.988,33.282L6.651,24.589L6.651,19.515L22.972,12.1L22.972,16.925L13.18,21.218C12.707,21.431 12.21,21.609 11.689,21.751C11.169,21.892 10.755,21.987 10.448,22.034C10.755,22.082 11.169,22.17 11.689,22.301C12.21,22.431 12.707,22.602 13.18,22.815L27.514,29.131L36.632,4.259L42.132,4.259L39.897,10.29L59.872,19.48L59.872,24.554L43.551,31.969L43.551,27.144L53.344,22.85C53.817,22.638 54.313,22.46 54.834,22.318C55.354,22.176 55.768,22.082 56.076,22.034C55.768,21.987 55.354,21.898 54.834,21.768C54.313,21.638 53.817,21.467 53.344,21.254L38.371,14.477L29.891,37.61L24.392,37.61Z" style="fill:rgb(0,70,255);fill-rule:nonzero;stroke:rgb(0,70,255);stroke-width:2.32px;"/>
    </g>
</svg>
