<?xml version="1.0" encoding="UTF-8" standalone="no"?>
<!DOCTYPE svg PUBLIC "-//W3C//DTD SVG 1.1//EN" "http://www.w3.org/Graphics/SVG/1.1/DTD/svg11.dtd">
<svg width="100%" height="100%" viewBox="0 0 191 150" version="1.1" xmlns="http://www.w3.org/2000/svg" xmlns:xlink="http://www.w3.org/1999/xlink" xml:space="preserve" xmlns:serif="http://www.serif.com/" style="fill-rule:evenodd;clip-rule:evenodd;stroke-linejoin:round;stroke-miterlimit:2;">
    <g id="Main-Logo" serif:id="Main Logo">
        <g>
            <path d="M0,144.518L6.292,127.589C8.989,129.485 12.285,130.435 16.18,130.435C19.176,130.435 21.522,129.461 23.221,127.514C24.918,125.566 25.768,122.645 25.768,118.75L25.768,38.15L49.139,38.15L49.139,118.6C49.139,127.987 46.465,135.403 41.124,140.847C35.78,146.29 28.315,149.012 18.727,149.012C10.539,149.012 4.295,147.514 -0,144.518" style="fill:white;fill-rule:nonzero;"/>
            <path d="M26.967,23.169C24.27,20.674 22.921,17.577 22.921,13.881C22.921,10.186 24.27,7.09 26.967,4.592C29.663,2.097 33.158,0.847 37.453,0.847C41.746,0.847 45.244,2.045 47.94,4.442C50.637,6.839 51.985,9.836 51.985,13.431C51.985,17.327 50.637,20.547 47.94,23.094C45.244,25.641 41.746,26.914 37.453,26.914C33.158,26.914 29.663,25.666 26.967,23.169" style="fill:#ffffff60;fill-rule:nonzero;"/>
            <path d="M96.629,55.627C93.033,58.623 90.835,62.72 90.037,67.911L129.738,67.911C128.938,62.818 126.742,58.75 123.146,55.702C119.55,52.656 115.154,51.133 109.963,51.133C104.667,51.133 100.224,52.63 96.629,55.627M151.311,81.544L90.337,81.544C91.434,86.54 94.03,90.484 98.127,93.38C102.221,96.278 107.314,97.724 113.408,97.724C117.603,97.724 121.322,97.102 124.569,95.851C127.814,94.604 130.835,92.631 133.633,89.934L146.067,103.417C138.476,112.107 127.389,116.451 112.809,116.451C103.719,116.451 95.679,114.679 88.689,111.132C81.697,107.589 76.303,102.668 72.509,96.376C68.712,90.084 66.816,82.944 66.816,74.953C66.816,67.064 68.689,59.948 72.434,53.604C76.179,47.263 81.322,42.32 87.865,38.773C94.405,35.229 101.723,33.454 109.812,33.454C117.701,33.454 124.843,35.154 131.236,38.548C137.626,41.945 142.645,46.814 146.292,53.155C149.937,59.498 151.76,66.863 151.76,75.253C151.76,75.552 151.61,77.649 151.311,81.544" style="fill:white;fill-rule:nonzero;"/>
            <path d="M165.842,112.256C163.045,109.461 161.647,105.964 161.647,101.769C161.647,97.476 163.045,94.005 165.842,91.357C168.637,88.713 172.082,87.387 176.179,87.387C180.273,87.387 183.719,88.713 186.516,91.357C189.311,94.005 190.711,97.476 190.711,101.769C190.711,105.964 189.311,109.461 186.516,112.256C183.719,115.053 180.273,116.451 176.179,116.451C172.082,116.451 168.637,115.053 165.842,112.256" style="fill:#ffffff60;fill-rule:nonzero;"/>
        </g>
    </g>
</svg>
